if (_typeface_js && _typeface_js.loadFace) _typeface_js.loadFace({"glyphs":{"S":{"x_min":26.203125,"x_max":753.984375,"ha":821,"o":"m 753 291 b 677 501 753 379 730 451 b 488 577 635 540 578 565 l 372 594 b 280 633 331 600 299 615 b 251 704 259 652 251 679 b 403 829 251 772 301 829 b 606 761 469 829 544 820 l 728 881 b 409 997 644 963 545 997 b 65 697 195 997 65 873 b 135 502 65 613 88 550 b 327 420 180 459 242 433 l 447 404 b 534 369 492 397 515 387 b 565 286 555 350 565 320 b 390 163 565 206 503 163 b 151 247 298 163 213 184 l 26 122 b 387 -8 123 23 237 -8 b 753 291 594 -8 753 100 "},"/":{"x_min":0,"x_max":565.28125,"ha":560,"o":"m 565 1091 l 395 1091 l 0 -102 l 169 -102 l 565 1091 "},"K":{"x_min":115.28125,"x_max":915.28125,"ha":924,"o":"m 915 0 l 563 595 l 891 988 l 656 988 l 308 558 l 308 988 l 115 988 l 115 0 l 308 0 l 308 297 l 436 450 l 690 0 l 915 0 "},"7":{"x_min":62.875,"x_max":719.8125,"ha":768,"o":"m 719 666 l 719 829 l 62 829 l 62 511 l 235 511 l 235 666 l 525 666 l 160 -163 l 354 -163 l 719 666 "},"d":{"x_min":70.828125,"x_max":677.78125,"ha":779,"o":"m 677 0 l 677 988 l 497 988 l 497 659 b 320 731 450 712 394 731 b 144 666 250 731 184 706 b 70 362 72 594 70 470 b 144 56 70 254 72 129 b 322 -8 184 16 251 -8 b 501 67 398 -8 451 12 l 501 0 l 677 0 m 497 362 b 373 154 497 244 481 154 b 251 362 265 154 251 244 b 373 569 251 480 265 569 b 497 362 481 569 497 480 "},",":{"x_min":94.4375,"x_max":293.0625,"ha":388,"o":"m 293 -76 l 293 197 l 94 197 l 94 -229 l 293 -76 "},"Y":{"x_min":4.171875,"x_max":790.28125,"ha":794,"o":"m 790 988 l 580 988 l 398 590 l 213 988 l 4 988 l 301 405 l 301 0 l 493 0 l 493 405 l 790 988 "},"E":{"x_min":115.28125,"x_max":766.671875,"ha":840,"o":"m 766 0 l 766 172 l 308 172 l 308 412 l 698 412 l 698 584 l 308 584 l 308 816 l 766 816 l 766 988 l 115 988 l 115 0 l 766 0 "},"y":{"x_min":5.5625,"x_max":680.5625,"ha":686,"o":"m 680 723 l 490 723 l 345 276 l 195 723 l 5 723 l 252 51 l 222 -37 b 131 -102 204 -90 183 -102 l 90 -102 l 90 -265 l 161 -265 b 316 -209 220 -265 275 -251 b 370 -116 338 -187 355 -156 l 680 723 "},"\"":{"x_min":94.4375,"x_max":548.609375,"ha":644,"o":"m 548 695 l 548 988 l 380 988 l 380 695 l 548 695 m 263 695 l 263 988 l 94 988 l 94 695 l 263 695 "},"‹":{"x_min":47.21875,"x_max":393.0625,"ha":486,"o":"m 393 38 l 393 253 l 262 382 l 393 511 l 393 727 l 47 382 l 393 38 "},"„":{"x_min":94.4375,"x_max":575,"ha":674,"o":"m 575 0 l 575 172 l 386 172 l 386 -144 l 575 0 m 281 0 l 281 172 l 94 172 l 94 -144 l 281 0 "},"g":{"x_min":71.03125,"x_max":669.65625,"ha":771,"o":"m 669 27 l 669 723 l 494 723 l 494 655 b 318 731 444 710 394 731 b 144 667 247 731 184 708 b 71 382 76 599 71 508 b 144 95 71 255 76 163 b 316 31 184 54 246 31 b 489 103 387 31 441 50 l 489 29 b 343 -120 489 -43 451 -120 b 201 -64 282 -120 241 -103 l 89 -178 b 351 -272 164 -250 240 -272 b 669 27 546 -272 669 -146 m 489 382 b 369 193 489 286 476 193 b 251 382 262 193 251 286 b 369 569 251 477 262 569 b 489 382 476 569 489 477 "},"–":{"x_min":69.4375,"x_max":684.71875,"ha":754,"o":"m 684 312 l 684 480 l 69 480 l 69 312 l 684 312 "},"ƒ":{"x_min":15.328125,"x_max":551.640625,"ha":593,"o":"m 551 847 l 551 998 l 448 1000 b 202 793 301 1001 220 895 l 159 551 l 43 551 l 43 412 l 136 412 l 15 -265 l 195 -265 l 316 412 l 473 412 l 473 551 l 340 551 l 380 781 b 455 847 387 823 412 847 l 551 847 "},"e":{"x_min":65.28125,"x_max":695.828125,"ha":761,"o":"m 695 305 l 695 386 b 380 731 695 584 581 731 b 65 362 193 731 65 598 b 400 -8 65 69 229 -8 b 675 105 530 -8 601 31 l 565 212 b 401 144 519 166 480 144 b 243 305 300 144 243 212 l 695 305 m 518 429 l 243 429 b 259 506 244 461 248 480 b 380 581 279 550 319 581 b 501 506 441 581 481 550 b 518 429 512 480 516 461 "},"J":{"x_min":4.171875,"x_max":606.9375,"ha":710,"o":"m 606 325 l 606 988 l 413 988 l 413 333 b 258 163 413 219 352 163 b 131 219 194 163 163 187 l 4 93 b 258 -8 77 19 151 -8 b 606 325 441 -8 606 106 "},"|":{"x_min":152.78125,"x_max":333.328125,"ha":486,"o":"m 333 -102 l 333 1091 l 152 1091 l 152 -102 l 333 -102 "},"^":{"x_min":87.5,"x_max":748.609375,"ha":836,"o":"m 748 540 l 501 998 l 334 998 l 87 540 l 276 540 l 418 801 l 559 540 l 748 540 "},"q":{"x_min":70.828125,"x_max":677.78125,"ha":779,"o":"m 677 -265 l 677 723 l 501 723 l 501 655 b 322 731 451 710 398 731 b 144 666 251 731 184 706 b 70 362 72 594 70 470 b 144 56 70 253 72 128 b 320 -8 184 16 250 -8 b 497 63 394 -8 450 10 l 497 -265 l 677 -265 m 497 362 b 373 153 497 244 481 153 b 251 362 265 153 251 244 b 373 569 251 480 265 569 b 497 362 481 569 497 480 "},"b":{"x_min":101.390625,"x_max":706.953125,"ha":778,"o":"m 706 362 b 633 666 706 470 705 594 b 456 731 593 706 527 731 b 281 659 383 731 329 712 l 281 988 l 101 988 l 101 0 l 276 0 l 276 68 b 456 -7 326 13 380 -7 b 633 57 527 -7 593 17 b 706 362 705 129 706 254 m 526 362 b 404 154 526 244 512 154 b 281 362 295 154 281 244 b 404 569 281 480 295 569 b 526 362 512 569 526 480 "},"D":{"x_min":115.28125,"x_max":833.640625,"ha":915,"o":"m 833 498 b 733 894 833 647 844 783 b 472 988 668 959 575 988 l 115 988 l 115 0 l 472 0 b 733 94 575 0 668 29 b 833 498 844 205 833 350 m 640 498 b 598 233 640 348 634 277 b 454 172 565 193 520 172 l 308 172 l 308 816 l 454 816 b 598 755 520 816 565 795 b 640 498 634 711 640 648 "},"z":{"x_min":51.390625,"x_max":602.78125,"ha":664,"o":"m 602 0 l 602 162 l 277 162 l 602 586 l 602 723 l 69 723 l 69 561 l 372 561 l 51 137 l 51 0 l 602 0 "},"w":{"x_min":5.5625,"x_max":1048.609375,"ha":1054,"o":"m 1048 723 l 858 723 l 741 276 l 593 723 l 461 723 l 313 276 l 197 723 l 5 723 l 227 0 l 376 0 l 527 454 l 679 0 l 827 0 l 1048 723 "},"$":{"x_min":26.3125,"x_max":792.984375,"ha":860,"o":"m 792 291 b 716 500 792 379 769 450 b 527 577 674 538 617 563 l 474 586 l 474 827 b 645 761 531 823 599 805 l 767 881 b 494 995 692 954 606 988 l 494 1119 l 354 1119 l 354 994 b 65 697 173 975 65 856 b 136 504 65 613 88 551 b 327 420 177 462 244 431 l 372 415 l 372 163 b 151 247 288 166 209 188 l 26 122 b 354 -8 116 30 220 -4 l 354 -158 l 494 -158 l 494 -2 b 792 291 667 18 792 122 m 372 594 b 280 633 333 600 302 612 b 251 704 259 652 251 679 b 372 826 251 765 291 815 l 372 594 m 604 286 b 474 166 604 218 558 176 l 474 405 b 573 369 511 400 545 395 b 604 286 594 350 604 320 "},"™":{"x_min":62.5,"x_max":1194.453125,"ha":1283,"o":"m 1194 395 l 1194 988 l 1062 988 l 893 672 l 723 988 l 591 988 l 591 395 l 723 395 l 723 745 l 834 527 l 951 527 l 1062 745 l 1062 395 l 1194 395 m 500 870 l 500 988 l 62 988 l 62 870 l 215 870 l 215 395 l 347 395 l 347 870 l 500 870 "},"\\":{"x_min":0,"x_max":559.71875,"ha":560,"o":"m 559 -102 l 169 1073 l 0 1073 l 390 -102 l 559 -102 "},"’":{"x_min":94.4375,"x_max":283.328125,"ha":379,"o":"m 283 816 l 283 988 l 94 988 l 94 673 l 283 816 "},"~":{"x_min":51.390625,"x_max":790.28125,"ha":842,"o":"m 790 389 l 675 503 b 554 445 623 452 591 445 b 441 478 513 445 481 457 b 279 526 381 510 336 526 b 51 406 194 526 137 492 l 165 292 b 284 351 216 344 247 351 b 398 317 325 351 358 338 b 561 270 458 285 504 270 b 790 389 645 270 704 303 "},"-":{"x_min":81.9375,"x_max":509.71875,"ha":592,"o":"m 509 312 l 509 480 l 81 480 l 81 312 l 509 312 "},"Q":{"x_min":81.4375,"x_max":835.625,"ha":893,"o":"m 835 59 l 750 144 b 812 494 813 236 812 346 b 713 889 812 665 813 789 b 446 997 643 958 559 997 b 178 889 334 997 248 958 b 81 494 78 789 81 665 b 178 100 81 323 78 200 b 446 -8 248 30 334 -8 b 646 46 524 -8 591 9 l 734 -41 l 835 59 m 618 494 b 600 294 618 394 616 337 l 527 368 l 424 266 l 510 182 b 446 164 492 169 470 164 b 321 216 393 164 349 184 b 274 494 284 258 274 304 b 321 772 274 684 284 730 b 446 825 349 804 393 825 b 570 772 499 825 542 804 b 618 494 607 730 618 684 "},"M":{"x_min":115.28125,"x_max":1011.109375,"ha":1126,"o":"m 1011 0 l 1011 988 l 820 988 l 563 454 l 305 988 l 115 988 l 115 0 l 308 0 l 308 576 l 498 201 l 629 201 l 818 576 l 818 0 l 1011 0 "},"C":{"x_min":81.9375,"x_max":720.828125,"ha":781,"o":"m 720 105 l 593 233 b 445 163 550 190 515 163 b 323 215 393 163 351 183 b 275 494 286 256 275 304 b 323 773 275 684 286 731 b 445 825 351 805 393 825 b 593 755 515 825 550 798 l 720 883 b 445 997 650 952 572 997 b 179 888 337 997 248 958 b 81 494 79 788 81 665 b 179 100 81 323 79 200 b 445 -8 248 30 337 -8 b 720 105 572 -8 650 36 "},"[":{"x_min":111.109375,"x_max":468.0625,"ha":525,"o":"m 468 -102 l 468 59 l 291 59 l 291 929 l 468 929 l 468 1091 l 111 1091 l 111 -102 l 468 -102 "},"L":{"x_min":115.28125,"x_max":756.953125,"ha":799,"o":"m 756 0 l 756 172 l 308 172 l 308 988 l 115 988 l 115 0 l 756 0 "},"!":{"x_min":155.5625,"x_max":379.171875,"ha":482,"o":"m 379 988 l 155 988 l 200 309 l 333 309 l 379 988 m 376 104 b 266 213 376 163 326 213 b 158 104 206 213 158 163 b 266 -4 158 44 206 -4 b 376 104 326 -4 376 44 "}," ":{"x_min":0,"x_max":0,"ha":322},"{":{"x_min":59.5,"x_max":574.765625,"ha":635,"o":"m 574 -102 l 574 59 l 501 59 b 421 79 459 59 437 63 b 399 168 406 95 399 120 l 399 355 b 303 494 399 455 340 480 b 399 633 340 508 399 533 l 399 820 b 421 909 399 868 406 893 b 501 929 437 925 459 929 l 574 929 l 574 1091 l 433 1091 b 277 1040 360 1091 310 1073 b 219 886 237 1000 219 948 l 219 684 b 195 601 219 645 212 618 b 123 575 180 586 156 575 l 59 575 l 59 413 l 123 413 b 195 387 156 413 180 402 b 219 304 212 370 219 343 l 219 102 b 277 -51 219 40 237 -11 b 433 -102 310 -84 360 -102 l 574 -102 "},"X":{"x_min":6.9375,"x_max":830.5625,"ha":838,"o":"m 830 0 l 522 506 l 809 988 l 591 988 l 418 669 l 245 988 l 26 988 l 313 506 l 6 0 l 227 0 l 418 344 l 609 0 l 830 0 "},"P":{"x_min":115.28125,"x_max":825,"ha":872,"o":"m 825 680 b 498 988 825 848 702 988 l 115 988 l 115 0 l 308 0 l 308 372 l 498 372 b 825 680 702 372 825 512 m 631 680 b 488 545 631 600 576 545 l 308 545 l 308 816 l 488 816 b 631 680 576 816 631 761 "},"%":{"x_min":72.21875,"x_max":1105.5625,"ha":1178,"o":"m 1105 181 l 1105 319 b 904 509 1105 444 1012 509 b 702 319 794 509 702 444 l 702 181 b 904 -8 702 56 794 -8 b 1105 181 1012 -8 1105 56 m 894 988 l 752 988 l 284 0 l 426 0 l 894 988 m 475 669 l 475 806 b 273 997 475 931 381 997 b 72 806 163 997 72 931 l 72 669 b 273 479 72 544 163 479 b 475 669 381 479 475 544 m 975 187 b 904 108 975 134 948 108 b 833 187 858 108 833 134 l 833 313 b 904 393 833 366 858 393 b 975 313 948 393 975 366 l 975 187 m 344 675 b 273 595 344 622 318 595 b 202 675 229 595 202 622 l 202 801 b 273 880 202 854 227 880 b 344 801 318 880 344 854 l 344 675 "},"#":{"x_min":83.328125,"x_max":893.0625,"ha":960,"o":"m 893 583 l 893 751 l 797 751 l 834 997 l 645 997 l 606 751 l 445 751 l 484 997 l 294 997 l 255 751 l 131 751 l 131 583 l 229 583 l 206 433 l 83 433 l 83 263 l 179 263 l 137 0 l 327 0 l 369 263 l 530 263 l 487 0 l 677 0 l 719 263 l 843 263 l 843 433 l 747 433 l 769 583 l 893 583 m 579 583 l 556 433 l 395 433 l 419 583 l 579 583 "},"_":{"x_min":0,"x_max":836.109375,"ha":836,"o":"m 836 -247 l 836 -126 l 0 -126 l 0 -247 l 836 -247 "},"+":{"x_min":69.4375,"x_max":684.71875,"ha":754,"o":"m 684 300 l 684 469 l 462 469 l 462 691 l 293 691 l 293 469 l 69 469 l 69 300 l 293 300 l 293 77 l 462 77 l 462 300 l 684 300 "},"‚":{"x_min":94.4375,"x_max":283.328125,"ha":376,"o":"m 283 0 l 283 172 l 94 172 l 94 -144 l 283 0 "},")":{"x_min":75,"x_max":355.5625,"ha":467,"o":"m 355 191 l 355 797 b 319 976 355 858 351 920 b 197 1119 287 1030 243 1073 l 75 997 b 152 905 108 963 129 945 b 173 788 166 880 173 841 l 173 200 b 152 83 173 147 166 108 b 75 -8 129 43 108 25 l 197 -130 b 319 12 243 -84 287 -41 b 355 191 351 68 355 130 "},"'":{"x_min":94.4375,"x_max":265.28125,"ha":360,"o":"m 265 695 l 265 988 l 94 988 l 94 695 l 265 695 "},"}":{"x_min":60.234375,"x_max":575.5,"ha":635,"o":"m 575 413 l 575 575 l 511 575 b 439 601 478 575 454 586 b 415 684 422 618 415 645 l 415 886 b 357 1040 415 948 397 1000 b 201 1091 324 1073 274 1091 l 60 1091 l 60 929 l 133 929 b 213 909 175 929 197 925 b 235 820 228 893 235 868 l 235 633 b 331 494 235 533 294 508 b 235 355 294 480 235 455 l 235 168 b 213 79 235 120 228 95 b 133 59 197 63 175 59 l 60 59 l 60 -102 l 201 -102 b 357 -51 274 -102 324 -84 b 415 102 397 -11 415 40 l 415 304 b 439 387 415 343 422 370 b 511 413 454 402 478 413 l 575 413 "},"‰":{"x_min":72.21875,"x_max":1608.328125,"ha":1682,"o":"m 1608 181 l 1608 319 b 1406 509 1608 444 1515 509 b 1205 319 1297 509 1205 444 l 1205 181 b 1406 -8 1205 56 1297 -8 b 1608 181 1515 -8 1608 56 m 1105 181 l 1105 319 b 904 509 1105 444 1012 509 b 702 319 794 509 702 444 l 702 181 b 904 -8 702 56 794 -8 b 1105 181 1012 -8 1105 56 m 894 988 l 752 988 l 284 0 l 426 0 l 894 988 m 475 669 l 475 806 b 273 997 475 931 381 997 b 72 806 163 997 72 931 l 72 669 b 273 479 72 544 163 479 b 475 669 381 479 475 544 m 1477 186 b 1406 108 1477 133 1451 108 b 1336 187 1361 108 1336 134 l 1336 313 b 1406 393 1336 366 1361 393 b 1477 313 1451 393 1477 366 l 1477 186 m 975 187 b 904 108 975 134 948 108 b 833 187 858 108 833 134 l 833 313 b 904 393 833 366 858 393 b 975 313 948 393 975 366 l 975 187 m 344 675 b 273 595 344 622 318 595 b 202 675 229 595 202 622 l 202 801 b 273 880 202 854 227 880 b 344 801 318 880 344 854 l 344 675 "},"a":{"x_min":50.0625,"x_max":648.671875,"ha":742,"o":"m 648 0 l 648 476 b 340 731 648 645 543 731 b 79 631 219 731 150 709 l 194 519 b 333 579 232 562 263 579 b 468 465 429 579 468 544 l 468 429 l 297 429 b 50 219 129 429 50 334 b 109 56 50 155 70 97 b 294 -6 152 13 212 -6 b 472 62 377 -6 423 13 l 472 0 l 648 0 m 468 266 b 441 175 468 222 461 193 b 327 140 409 144 377 140 b 223 223 257 140 223 173 b 325 305 223 275 259 305 l 468 305 l 468 266 "},"T":{"x_min":41.671875,"x_max":751.390625,"ha":793,"o":"m 751 816 l 751 988 l 41 988 l 41 816 l 300 816 l 300 0 l 493 0 l 493 816 l 751 816 "},"—":{"x_min":81.9375,"x_max":1344.453125,"ha":1426,"o":"m 1344 313 l 1344 487 l 81 487 l 81 313 l 1344 313 "},"=":{"x_min":69.4375,"x_max":684.71875,"ha":754,"o":"m 684 462 l 684 631 l 69 631 l 69 462 l 684 462 m 684 161 l 684 330 l 69 330 l 69 161 l 684 161 "},"N":{"x_min":115.28125,"x_max":872.21875,"ha":988,"o":"m 872 0 l 872 988 l 679 988 l 679 383 l 287 988 l 115 988 l 115 0 l 308 0 l 308 606 l 700 0 l 872 0 "},"⁄":{"x_min":-159.71875,"x_max":448.609375,"ha":289,"o":"m 448 988 l 308 988 l -159 0 l -19 0 l 448 988 "},"2":{"x_min":59.71875,"x_max":680.5625,"ha":761,"o":"m 680 0 l 680 162 l 306 162 l 486 322 b 662 591 586 411 662 484 b 362 865 662 756 533 865 b 61 580 195 865 61 758 l 241 580 b 362 702 241 666 301 702 b 481 588 434 702 481 655 b 383 438 481 536 444 491 l 59 162 l 59 0 l 680 0 "},"j":{"x_min":-31.9375,"x_max":304.171875,"ha":382,"o":"m 304 927 b 191 1040 304 990 254 1040 b 77 927 129 1040 77 990 b 191 813 77 865 129 813 b 304 927 254 813 304 865 m 281 -63 l 281 723 l 101 723 l 101 -52 b 37 -118 101 -95 83 -118 l -31 -118 l -31 -270 l 70 -270 b 281 -63 219 -270 281 -166 "},"Z":{"x_min":55.5625,"x_max":705.5625,"ha":761,"o":"m 705 0 l 705 172 l 281 172 l 705 836 l 705 988 l 73 988 l 73 816 l 477 816 l 55 155 l 55 0 l 705 0 "},"u":{"x_min":93.0625,"x_max":694.453125,"ha":796,"o":"m 694 0 l 694 723 l 513 723 l 513 286 b 393 154 513 187 450 154 b 273 286 336 154 273 187 l 273 723 l 93 723 l 93 261 b 166 55 93 181 108 113 b 337 -8 206 15 265 -8 b 518 66 404 -8 470 16 l 518 0 l 694 0 "},"1":{"x_min":73.609375,"x_max":456.9375,"ha":608,"o":"m 456 0 l 456 829 l 276 829 l 73 654 l 73 459 l 276 634 l 276 0 l 456 0 "},"›":{"x_min":93.0625,"x_max":438.890625,"ha":486,"o":"m 438 382 l 93 727 l 93 511 l 225 382 l 93 253 l 93 38 l 438 382 "},"k":{"x_min":101.390625,"x_max":759.71875,"ha":776,"o":"m 759 0 l 481 431 l 740 723 l 522 723 l 281 427 l 281 988 l 101 988 l 101 0 l 281 0 l 281 215 l 358 301 l 536 0 l 759 0 "},"<":{"x_min":177.78125,"x_max":1247.21875,"ha":1426,"o":"m 1247 288 l 1247 516 l 798 62 l 798 1040 l 627 1040 l 627 62 l 177 516 l 177 288 l 712 -247 l 1247 288 "},"t":{"x_min":41.671875,"x_max":426.390625,"ha":489,"o":"m 426 0 l 426 152 l 361 152 b 298 218 318 152 298 176 l 298 565 l 426 565 l 426 702 l 298 702 l 298 916 l 118 916 l 118 702 l 41 702 l 41 565 l 118 565 l 118 206 b 327 0 118 104 180 0 l 426 0 "},"W":{"x_min":8.328125,"x_max":1223.609375,"ha":1232,"o":"m 1223 988 l 1022 988 l 868 365 l 687 988 l 543 988 l 362 365 l 209 988 l 8 988 l 272 0 l 433 0 l 615 600 l 797 0 l 958 0 l 1223 988 "},"v":{"x_min":5.5625,"x_max":679.171875,"ha":685,"o":"m 679 723 l 488 723 l 343 276 l 195 723 l 5 723 l 272 0 l 413 0 l 679 723 "},">":{"x_min":179.171875,"x_max":1248.609375,"ha":1426,"o":"m 1248 277 l 1248 505 l 713 1040 l 179 505 l 179 277 l 629 731 l 629 -247 l 798 -247 l 798 731 l 1248 277 "},"s":{"x_min":29.765625,"x_max":645.046875,"ha":696,"o":"m 645 227 b 429 440 645 350 572 426 l 315 451 b 240 513 252 456 240 487 b 343 583 240 550 271 583 b 511 534 406 583 470 572 l 622 647 b 346 731 553 712 458 731 b 67 501 199 731 67 651 b 278 298 67 368 147 311 l 392 287 b 468 220 449 281 468 256 b 340 145 468 166 403 145 b 147 213 285 145 207 154 l 29 95 b 338 -8 121 4 224 -8 b 645 227 508 -8 645 68 "},"B":{"x_min":115.359375,"x_max":832.03125,"ha":914,"o":"m 832 284 b 695 506 832 416 755 479 b 818 711 745 530 818 601 b 512 988 818 880 705 988 l 115 988 l 115 0 l 529 0 b 832 284 705 0 832 100 m 625 702 b 497 588 625 634 579 588 l 308 588 l 308 816 l 497 816 b 625 702 579 816 625 770 m 638 294 b 509 172 638 227 597 172 l 308 172 l 308 415 l 509 415 b 638 294 597 415 638 361 "},"…":{"x_min":83.328125,"x_max":1091.671875,"ha":1175,"o":"m 1091 116 b 970 237 1091 183 1037 237 b 850 116 904 237 850 183 b 970 -4 850 50 904 -4 b 1091 116 1037 -4 1091 50 m 708 116 b 587 237 708 183 654 237 b 466 116 520 237 466 183 b 587 -4 466 50 520 -4 b 708 116 654 -4 708 50 m 326 116 b 204 237 326 183 270 237 b 83 116 137 237 83 183 b 204 -4 83 50 137 -4 b 326 116 270 -4 326 50 "},"?":{"x_min":91.671875,"x_max":676.390625,"ha":726,"o":"m 676 719 b 383 997 676 895 540 997 b 91 719 222 997 91 891 l 272 719 b 383 834 272 783 309 834 b 495 720 452 834 495 786 b 455 627 495 690 477 656 l 352 495 b 300 351 316 448 300 411 l 300 309 l 480 309 l 480 338 b 505 409 480 362 491 391 l 608 545 b 676 719 647 597 676 650 m 500 104 b 390 213 500 163 450 213 b 281 104 330 213 281 163 b 390 -4 281 44 330 -4 b 500 104 450 -4 500 44 "},"H":{"x_min":115.28125,"x_max":836.109375,"ha":951,"o":"m 836 0 l 836 988 l 643 988 l 643 584 l 308 584 l 308 988 l 115 988 l 115 0 l 308 0 l 308 413 l 643 413 l 643 0 l 836 0 "},"c":{"x_min":65.28125,"x_max":627.78125,"ha":667,"o":"m 627 90 l 505 211 b 388 154 468 170 436 154 b 286 201 345 154 312 169 b 245 362 258 236 245 286 b 286 522 245 438 258 487 b 388 569 312 554 345 569 b 505 512 436 569 468 552 l 627 634 b 388 731 563 701 488 731 b 65 362 244 731 65 655 b 388 -8 65 69 244 -8 b 627 90 488 -8 563 23 "},"&":{"x_min":83.859375,"x_max":967.125,"ha":1001,"o":"m 967 0 l 789 209 b 894 516 858 287 887 388 l 723 516 b 673 343 721 445 705 386 l 506 540 b 577 591 531 556 577 591 b 679 763 638 636 679 687 b 426 997 679 898 582 997 b 163 766 261 997 163 901 b 261 556 163 672 221 602 b 83 291 175 500 83 418 b 409 -8 83 105 192 -8 b 665 86 551 -8 619 50 l 737 0 l 967 0 m 508 762 b 451 679 508 727 483 701 b 409 651 451 679 423 659 b 344 762 375 691 344 726 b 426 843 344 808 372 843 b 508 762 477 843 508 808 m 555 213 b 408 155 509 173 466 155 b 258 294 325 155 258 212 b 358 445 258 365 299 404 l 555 213 "},"I":{"x_min":115.28125,"x_max":308.328125,"ha":424,"o":"m 308 0 l 308 988 l 115 988 l 115 0 l 308 0 "},"•":{"x_min":115.28125,"x_max":568.0625,"ha":685,"o":"m 568 463 b 341 690 568 588 466 690 b 115 463 216 690 115 588 b 341 237 115 338 216 237 b 568 463 466 237 568 338 "},"G":{"x_min":82.046875,"x_max":814.015625,"ha":885,"o":"m 814 408 l 814 550 l 445 550 l 445 388 l 620 388 l 620 354 b 577 219 620 305 609 254 b 445 163 545 184 504 163 b 322 215 393 163 350 183 b 275 494 284 256 275 304 b 322 772 275 684 284 730 b 445 825 350 804 393 825 b 618 740 522 825 562 795 l 748 870 b 445 997 659 959 583 997 b 179 888 334 997 248 958 b 82 494 79 788 82 665 b 179 100 82 323 79 200 b 445 -8 248 30 337 -8 b 722 105 558 -8 651 31 b 814 408 791 177 814 265 "},"(":{"x_min":111.109375,"x_max":390.28125,"ha":467,"o":"m 390 -9 b 312 83 356 23 336 43 b 291 200 298 108 291 147 l 291 788 b 312 905 291 841 298 880 b 390 998 336 945 356 965 l 269 1119 b 147 976 223 1073 179 1030 b 111 797 115 920 111 858 l 111 191 b 147 12 111 130 115 68 b 269 -130 179 -41 223 -84 l 390 -9 "},"`":{"x_min":144.4375,"x_max":423.609375,"ha":694,"o":"m 423 838 l 334 1075 l 144 1075 l 302 838 l 423 838 "},"U":{"x_min":100,"x_max":827.78125,"ha":928,"o":"m 827 338 l 827 988 l 636 988 l 636 345 b 463 163 636 231 568 163 b 293 345 359 163 293 231 l 293 988 l 100 988 l 100 338 b 463 -8 100 129 261 -8 b 827 338 666 -8 827 129 "},"◊":{"x_min":76.390625,"x_max":806.953125,"ha":883,"o":"m 806 473 l 441 981 l 76 473 l 441 -36 l 806 473 m 604 473 l 441 244 l 279 473 l 441 701 l 604 473 "},"F":{"x_min":115.28125,"x_max":766.671875,"ha":819,"o":"m 766 816 l 766 988 l 115 988 l 115 0 l 308 0 l 308 401 l 698 401 l 698 573 l 308 573 l 308 816 l 766 816 "},"r":{"x_min":101.390625,"x_max":630.5625,"ha":632,"o":"m 630 663 b 459 731 580 713 530 731 b 277 653 381 731 312 695 l 277 723 l 101 723 l 101 0 l 281 0 l 281 435 b 398 569 281 527 343 569 b 494 526 443 569 466 553 l 630 663 "},":":{"x_min":118.0625,"x_max":359.71875,"ha":443,"o":"m 359 484 b 238 606 359 551 305 606 b 118 484 172 606 118 551 b 238 363 118 418 172 363 b 359 484 305 363 359 418 m 359 116 b 238 237 359 183 305 237 b 118 116 172 237 118 183 b 238 -4 118 50 172 -4 b 359 116 305 -4 359 50 "},"x":{"x_min":16.671875,"x_max":715.28125,"ha":732,"o":"m 715 0 l 465 369 l 705 723 l 488 723 l 365 516 l 243 723 l 26 723 l 266 369 l 16 0 l 233 0 l 365 216 l 498 0 l 715 0 "},"*":{"x_min":76.390625,"x_max":611.109375,"ha":686,"o":"m 611 638 l 456 719 l 611 800 l 547 911 l 401 818 l 406 991 l 279 991 l 286 818 l 138 911 l 76 800 l 229 719 l 76 638 l 138 529 l 286 620 l 279 447 l 406 447 l 401 620 l 547 529 l 611 638 "},"†":{"x_min":79.171875,"x_max":725,"ha":804,"o":"m 725 569 l 725 731 l 491 731 l 491 988 l 311 988 l 311 731 l 79 731 l 79 569 l 311 569 l 311 0 l 491 0 l 491 569 l 725 569 "},"V":{"x_min":4.171875,"x_max":802.78125,"ha":807,"o":"m 802 988 l 601 988 l 402 344 l 204 988 l 4 988 l 330 0 l 475 0 l 802 988 "},"h":{"x_min":101.390625,"x_max":697.21875,"ha":790,"o":"m 697 0 l 697 467 b 455 731 697 620 613 731 b 281 656 391 731 330 706 l 281 988 l 101 988 l 101 0 l 281 0 l 281 441 b 398 569 281 535 341 569 b 516 441 455 569 516 537 l 516 0 l 697 0 "},"0":{"x_min":76.390625,"x_max":679.171875,"ha":756,"o":"m 679 286 l 679 543 b 377 837 679 731 538 837 b 76 543 216 837 76 731 l 76 286 b 377 -8 76 97 216 -8 b 679 286 538 -8 679 97 m 498 287 b 377 154 498 204 448 154 b 256 287 306 154 256 204 l 256 540 b 377 675 256 623 306 675 b 498 540 448 675 498 623 l 498 287 "},".":{"x_min":83.328125,"x_max":326.390625,"ha":410,"o":"m 326 116 b 204 237 326 183 270 237 b 83 116 137 237 83 183 b 204 -4 83 50 137 -4 b 326 116 270 -4 326 50 "},"”":{"x_min":94.4375,"x_max":575,"ha":669,"o":"m 575 816 l 575 988 l 386 988 l 386 673 l 575 816 m 281 816 l 281 988 l 94 988 l 94 673 l 281 816 "},"@":{"x_min":79.171875,"x_max":972.21875,"ha":1053,"o":"m 972 -3 l 972 647 b 887 910 972 761 951 846 b 626 994 822 975 734 994 l 426 994 b 165 910 313 994 229 974 b 79 647 101 846 79 760 l 79 232 b 188 -20 79 107 109 50 l 313 104 b 252 242 268 144 252 172 l 252 643 b 301 785 252 701 261 744 b 440 833 340 824 384 833 l 612 833 b 751 785 668 833 715 821 b 800 643 788 747 800 701 l 800 580 b 636 649 758 626 706 649 b 461 578 563 649 501 622 b 397 321 405 517 397 444 b 462 61 397 196 405 122 b 637 -8 504 17 565 -8 b 804 64 713 -8 759 15 l 804 0 l 972 -3 m 800 321 b 684 142 800 211 773 142 b 570 321 595 142 570 211 b 684 498 570 430 595 498 b 800 321 773 498 800 430 "},"f":{"x_min":48.609375,"x_max":437.5,"ha":475,"o":"m 437 565 l 437 702 l 304 702 l 304 781 b 366 847 304 823 323 847 l 437 847 l 437 1000 l 334 1000 b 123 793 187 1000 123 895 l 123 702 l 48 702 l 48 565 l 123 565 l 123 0 l 304 0 l 304 565 l 437 565 "},";":{"x_min":118.0625,"x_max":359.71875,"ha":429,"o":"m 359 484 b 238 606 359 551 305 606 b 118 484 172 606 118 551 b 238 363 118 418 172 363 b 359 484 305 363 359 418 m 337 -76 l 337 197 l 140 197 l 140 -229 l 337 -76 "},"“":{"x_min":94.4375,"x_max":575,"ha":669,"o":"m 575 818 l 575 1134 l 386 988 l 386 818 l 575 818 m 281 818 l 281 1134 l 94 988 l 94 818 l 281 818 "},"i":{"x_min":77.78125,"x_max":304.171875,"ha":382,"o":"m 304 927 b 191 1040 304 990 254 1040 b 77 927 129 1040 77 990 b 191 813 77 865 129 813 b 304 927 254 813 304 865 m 281 0 l 281 723 l 101 723 l 101 0 l 281 0 "},"6":{"x_min":57.03125,"x_max":705.640625,"ha":763,"o":"m 705 312 b 430 619 705 509 576 619 b 325 598 386 619 355 613 l 561 1010 l 368 1010 l 152 623 b 57 307 88 507 57 423 b 382 -8 57 103 198 -8 b 705 312 565 -8 705 107 m 525 309 b 380 146 525 207 463 146 b 237 309 297 146 237 207 b 380 471 237 410 297 471 b 525 309 466 471 525 406 "},"A":{"x_min":6.9375,"x_max":879.171875,"ha":886,"o":"m 879 0 l 518 988 l 366 988 l 6 0 l 208 0 l 268 175 l 619 175 l 677 0 l 879 0 m 568 337 l 322 337 l 447 697 l 568 337 "},"‘":{"x_min":94.4375,"x_max":283.328125,"ha":379,"o":"m 283 818 l 283 1134 l 94 988 l 94 818 l 283 818 "},"n":{"x_min":101.390625,"x_max":702.78125,"ha":796,"o":"m 702 0 l 702 462 b 629 667 702 541 687 609 b 458 731 588 708 530 731 b 277 656 391 731 325 706 l 277 723 l 101 723 l 101 0 l 281 0 l 281 437 b 402 569 281 535 345 569 b 522 437 459 569 522 535 l 522 0 l 702 0 "},"O":{"x_min":81.9375,"x_max":812.5,"ha":894,"o":"m 812 494 b 713 888 812 665 813 788 b 447 997 644 958 559 997 b 179 888 334 997 248 958 b 81 494 79 788 81 665 b 179 100 81 323 79 200 b 447 -8 248 30 334 -8 b 713 100 559 -8 644 30 b 812 494 813 200 812 323 m 619 494 b 570 216 619 304 608 258 b 447 163 543 184 500 163 b 322 216 394 163 350 184 b 275 494 284 258 275 304 b 322 772 275 684 284 730 b 447 825 350 804 394 825 b 570 772 500 825 543 804 b 619 494 608 730 619 684 "},"3":{"x_min":46.4375,"x_max":675.609375,"ha":743,"o":"m 675 126 b 547 351 675 245 618 313 b 661 554 613 386 661 447 b 360 837 661 720 535 837 b 57 555 193 837 61 731 l 238 555 b 360 675 242 630 292 675 b 481 548 425 675 481 631 b 356 423 481 479 443 423 l 329 423 l 329 266 l 356 266 b 495 130 445 266 495 212 b 361 -6 495 41 439 -6 b 227 122 290 -6 229 33 l 46 122 b 361 -169 49 -84 200 -169 b 675 126 531 -169 675 -70 "},"]":{"x_min":58.328125,"x_max":415.28125,"ha":525,"o":"m 415 -102 l 415 1091 l 58 1091 l 58 930 l 234 930 l 234 58 l 58 58 l 58 -102 l 415 -102 "},"m":{"x_min":101.390625,"x_max":1123.609375,"ha":1217,"o":"m 1123 0 l 1123 462 b 1044 667 1123 541 1102 609 b 866 731 1004 708 938 731 b 650 640 776 731 711 703 b 458 731 604 702 538 731 b 277 656 391 731 325 705 l 277 723 l 101 723 l 101 0 l 281 0 l 281 437 b 402 569 281 535 345 569 b 522 437 459 569 522 535 l 522 0 l 702 0 l 702 441 b 823 569 702 535 768 569 b 943 437 880 569 943 535 l 943 0 l 1123 0 "},"9":{"x_min":57.359375,"x_max":705.96875,"ha":763,"o":"m 705 521 b 380 837 705 725 564 837 b 57 516 197 837 57 721 b 332 209 57 319 186 209 b 437 230 376 209 407 215 l 201 -181 l 396 -181 l 610 205 b 705 521 674 321 705 405 m 525 519 b 382 357 525 418 465 357 b 237 519 296 357 237 422 b 382 682 237 621 299 682 b 525 519 465 682 525 621 "},"l":{"x_min":94.4375,"x_max":408.328125,"ha":451,"o":"m 408 0 l 408 152 l 338 152 b 275 218 293 152 275 175 l 275 988 l 94 988 l 94 206 b 305 0 94 104 156 0 l 408 0 "},"8":{"x_min":72.390625,"x_max":705.6875,"ha":778,"o":"m 705 287 b 580 509 705 408 634 473 b 691 715 630 544 691 609 b 389 997 691 890 554 997 b 86 715 223 997 86 890 b 197 509 86 609 147 544 b 72 287 143 473 72 408 b 389 -8 72 95 214 -8 b 705 287 564 -8 705 95 m 511 709 b 389 584 511 637 459 584 b 266 709 318 584 266 637 b 389 834 266 780 318 834 b 511 709 459 834 511 780 m 525 290 b 389 154 525 213 465 154 b 252 290 312 154 252 213 b 389 427 252 366 312 427 b 525 290 465 427 525 366 "},"p":{"x_min":101.390625,"x_max":706.953125,"ha":778,"o":"m 706 362 b 633 666 706 470 705 594 b 456 731 593 706 527 731 b 276 655 380 731 326 710 l 276 723 l 101 723 l 101 -264 l 281 -264 l 281 64 b 456 -7 329 11 383 -7 b 633 57 527 -7 593 17 b 706 362 705 129 706 254 m 526 362 b 404 154 526 244 512 154 b 281 362 295 154 281 244 b 404 569 281 480 295 569 b 526 362 512 569 526 480 "},"4":{"x_min":54.484375,"x_max":764.203125,"ha":819,"o":"m 764 41 l 764 212 l 653 212 l 653 416 l 480 416 l 480 212 l 248 212 l 586 890 l 393 890 l 54 212 l 54 41 l 480 41 l 480 -170 l 653 -170 l 653 41 l 764 41 "},"‡":{"x_min":79.171875,"x_max":725,"ha":804,"o":"m 725 -8 l 725 154 l 491 154 l 491 569 l 725 569 l 725 731 l 491 731 l 491 988 l 311 988 l 311 731 l 79 731 l 79 569 l 311 569 l 311 154 l 79 154 l 79 -8 l 311 -8 l 311 -265 l 491 -265 l 491 -8 l 725 -8 "},"R":{"x_min":115.71875,"x_max":864.328125,"ha":908,"o":"m 864 0 l 643 426 b 824 686 739 461 824 547 b 503 988 824 851 704 988 l 115 988 l 115 0 l 308 0 l 308 394 l 447 394 l 640 0 l 864 0 m 631 686 b 490 555 631 609 575 555 l 308 555 l 308 816 l 490 816 b 631 686 575 816 631 762 "},"o":{"x_min":70.828125,"x_max":683.328125,"ha":754,"o":"m 683 362 b 601 643 683 493 666 575 b 376 731 556 690 483 731 b 152 643 269 731 197 690 b 70 362 87 575 70 493 b 152 80 70 230 87 148 b 376 -8 197 33 269 -8 b 601 80 483 -8 556 33 b 683 362 666 148 683 230 m 502 362 b 461 186 502 287 498 223 b 376 154 440 165 412 154 b 293 186 340 154 313 165 b 251 362 255 223 251 287 b 293 537 251 437 255 500 b 376 569 313 558 340 569 b 461 537 412 569 440 558 b 502 362 498 500 502 437 "},"5":{"x_min":86.109375,"x_max":693.0625,"ha":765,"o":"m 693 173 b 604 437 693 266 681 359 b 419 503 563 477 501 503 b 270 453 352 503 297 478 l 270 666 l 670 666 l 670 828 l 106 828 l 106 270 l 272 270 b 391 351 284 309 318 351 b 512 173 479 351 512 287 b 473 26 512 110 505 58 b 387 -5 451 3 422 -5 b 266 116 312 -5 276 38 l 86 116 b 166 -89 91 44 105 -28 b 387 -168 209 -132 284 -168 b 605 -87 490 -168 561 -132 b 693 173 677 -15 693 62 "}}}
